<svg fill="none" height="512" viewBox="0 0 24 24" width="512" xmlns="http://www.w3.org/2000/svg"><path clip-rule="evenodd" d="m2 7.70156c0-.45414.15456-.89476.43826-1.24939l2.66101-3.32625c.56931-.71165 1.43125-1.12592 2.3426-1.12592h9.11623c.9114 0 1.7733.41427 2.3426 1.12591l2.661 3.32626c.2837.35463.4383.79525.4383 1.24939v11.29844c0 1.6569-1.3431 3-3 3h-14c-1.65685 0-3-1.3431-3-3zm5.44187-3.70156h9.11623c.3038 0 .5911.13809.7809.3753l1.7748 2.21853c.131.16369.0144.40617-.1952.40617h-13.83719c-.20963 0-.32617-.24248-.19522-.40617l1.77482-2.21852c.18977-.23722.47708-.37531.78086-.37531zm5.56013 6.9996c0-.5523-.4478-1.00001-1-1.00001-.5523 0-1 .44771-1 1.00001v5.0863l-.7949-.7949c-.39052-.3905-1.02368-.3905-1.41421 0-.39052.3906-.39052 1.0237 0 1.4143l1.79481 1.7947c.781.7811 2.0473.7811 2.8284 0l1.791-1.7909c.3905-.3906.3905-1.0237 0-1.4143-.3905-.3905-1.0237-.3905-1.4142 0l-.7909.791z" fill="rgb(0,0,0)" fill-rule="evenodd"/></svg>