<svg id="Outline_and_Glyph" viewBox="0 0 32 32" xmlns="http://www.w3.org/2000/svg"><path d="m5.95 13.97v6.63c0 .06-.01.12-.02.18l-.37 1.63c-.19.83.01 1.7.55 2.37s1.34 1.05 2.19 1.05h15.4c.85 0 1.65-.38 2.19-1.05s.74-1.54.55-2.37l-.37-1.63c-.01-.06-.02-.12-.02-.18v-6.63c0-4.86-3.47-8.92-8.06-9.85-.002 0-.004 0-.007 0 .002-.041.017-.078.017-.119 0-1.1-.9-2-2-2s-2 .9-2 2c0 .042.014.078.017.119-.002 0-.004 0-.007 0-4.59.93-8.06 4.99-8.06 9.85z"/><path d="m11.8 27.83c.93 1.31 2.47 2.17 4.2 2.17s3.27-.86 4.2-2.17z"/><path d="m29.902 10.617-2.208-4.707c-.234-.499-.826-.716-1.33-.48-.5.234-.715.83-.48 1.33l2.208 4.707c.17.362.53.575.906.575.142 0 .286-.03.424-.095.5-.234.715-.83.48-1.33z"/><path d="m3.908 11.467 2.208-4.707c.234-.5.02-1.096-.48-1.33-.504-.235-1.096-.019-1.33.48l-2.208 4.707c-.234.5-.02 1.096.48 1.33.138.064.282.095.424.095.376 0 .736-.213.906-.575z"/></svg>