<svg width="88" height="96" viewBox="0 0 88 96" fill="none" xmlns="http://www.w3.org/2000/svg">
<path d="M2 93C8.20238 86.9013 14.3402 85.8155 20.8873 84.746C35.1243 82.4204 49.3692 81.6977 63.6265 81.5714C71.0845 81.5054 78.5429 81 86 81" stroke="#F7F7F7" stroke-width="4" stroke-linecap="round"/>
<path d="M27.5668 75.32C25.9881 75.32 24.8574 74.9787 24.1748 74.296C23.4921 73.5707 23.1508 72.2267 23.1508 70.264C23.1508 68.9413 23.2788 67.3413 23.5348 65.464C23.7908 63.5867 24.2388 60.7493 24.8788 56.952C24.9641 56.44 25.3054 54.3707 25.9028 50.744C26.5001 47.0747 27.0334 43.2347 27.5028 39.224C27.9294 35.8107 28.1428 33.2507 28.1428 31.544C28.1428 29.624 27.4388 28.664 26.0308 28.664C24.9641 28.664 23.6201 29.24 21.9988 30.392C20.4201 31.5013 18.7134 33.2933 16.8788 35.768C16.2814 36.5787 15.6201 36.984 14.8948 36.984C14.2974 36.984 13.7641 36.7067 13.2948 36.152C12.8681 35.5547 12.6547 34.8933 12.6547 34.168C12.6547 33.4427 12.7828 32.76 13.0388 32.12C13.2948 31.4373 13.7641 30.6267 14.4468 29.688C16.5374 26.8293 18.8628 24.632 21.4228 23.096C23.9828 21.5173 26.6708 20.728 29.4868 20.728C31.8334 20.728 33.5828 21.4533 34.7348 22.904C35.9294 24.3547 36.5268 26.4667 36.5268 29.24C36.5268 31.7147 36.1854 35.2987 35.5028 39.992C37.6361 33.6773 40.3454 28.8987 43.6308 25.656C46.9161 22.3707 50.7774 20.728 55.2148 20.728C58.7134 20.728 61.3374 21.7307 63.0868 23.736C64.8788 25.6987 65.7748 28.344 65.7748 31.672C65.7748 33.5493 65.4974 35.832 64.9428 38.52L61.0388 56.824C60.6121 58.9573 60.3988 60.792 60.3988 62.328C60.3988 64.12 60.8041 65.464 61.6148 66.36C62.4681 67.256 63.6414 67.704 65.1348 67.704C66.5428 67.704 67.9081 67.2347 69.2308 66.296C70.5961 65.3573 72.1961 63.8 74.0308 61.624C74.5428 61.0267 75.1188 60.728 75.7588 60.728C76.3134 60.728 76.7401 60.984 77.0387 61.496C77.3801 62.008 77.5508 62.712 77.5508 63.608C77.5508 65.272 77.1454 66.5947 76.3348 67.576C74.1161 70.264 71.9188 72.2267 69.7428 73.464C67.5668 74.7013 65.2841 75.32 62.8948 75.32C59.2681 75.32 56.4308 74.2533 54.3828 72.12C52.3348 69.944 51.3108 67.0427 51.3108 63.416C51.3108 62.008 51.4174 60.472 51.6308 58.808C51.8868 57.144 52.2921 55.032 52.8468 52.472L55.4068 40.76C55.4921 40.376 55.6414 39.6933 55.8548 38.712C56.0681 37.7307 56.2388 36.8133 56.3668 35.96C56.4948 35.064 56.5588 34.1893 56.5588 33.336C56.5588 31.9707 56.1748 30.8827 55.4068 30.072C54.6388 29.2613 53.5508 28.856 52.1428 28.856C49.5828 28.856 47.0228 30.2213 44.4628 32.952C41.9028 35.6827 39.5348 40.0987 37.3588 46.2C35.1828 52.2587 33.4761 60.024 32.2388 69.496C31.9401 71.672 31.4921 73.1867 30.8948 74.04C30.3401 74.8933 29.2308 75.32 27.5668 75.32Z" fill="#F7F7F7"/>
</svg>
