<svg width="245" height="98" viewBox="0 0 245 98" fill="none" xmlns="http://www.w3.org/2000/svg">
<path d="M4 94.7964C21.5448 88.8012 38.9072 87.7338 57.427 86.6825C97.6995 84.3963 137.995 83.6858 178.324 83.5617C199.421 83.4968 220.519 83 241.613 83" stroke="#F7F7F7" stroke-width="5" stroke-linecap="round"/>
<path d="M28.7543 75.32C27.1756 75.32 26.0449 74.9787 25.3623 74.296C24.6796 73.5707 24.3383 72.2267 24.3383 70.264C24.3383 68.9413 24.4663 67.3413 24.7223 65.464C24.9783 63.5867 25.4263 60.7493 26.0663 56.952C26.1516 56.44 26.4929 54.3707 27.0903 50.744C27.6876 47.0747 28.2209 43.2347 28.6903 39.224C29.1169 35.8107 29.3303 33.2507 29.3303 31.544C29.3303 29.624 28.6263 28.664 27.2183 28.664C26.1516 28.664 24.8076 29.24 23.1863 30.392C21.6076 31.5013 19.9009 33.2933 18.0663 35.768C17.4689 36.5787 16.8076 36.984 16.0823 36.984C15.4849 36.984 14.9516 36.7067 14.4823 36.152C14.0556 35.5547 13.8422 34.8933 13.8422 34.168C13.8422 33.4427 13.9703 32.76 14.2263 32.12C14.4823 31.4373 14.9516 30.6267 15.6343 29.688C17.7249 26.8293 20.0503 24.632 22.6103 23.096C25.1703 21.5173 27.8583 20.728 30.6743 20.728C33.0209 20.728 34.7703 21.4533 35.9223 22.904C37.1169 24.3547 37.7143 26.4667 37.7143 29.24C37.7143 31.7147 37.3729 35.2987 36.6903 39.992C38.8236 33.6773 41.5329 28.8987 44.8183 25.656C48.1036 22.3707 51.9649 20.728 56.4023 20.728C59.9009 20.728 62.5249 21.7307 64.2743 23.736C66.0663 25.6987 66.9623 28.344 66.9623 31.672C66.9623 33.5493 66.6849 35.832 66.1303 38.52L62.2263 56.824C61.7996 58.9573 61.5863 60.792 61.5863 62.328C61.5863 64.12 61.9916 65.464 62.8023 66.36C63.6556 67.256 64.8289 67.704 66.3223 67.704C67.7303 67.704 69.0956 67.2347 70.4183 66.296C71.7836 65.3573 73.3836 63.8 75.2183 61.624C75.7303 61.0267 76.3063 60.728 76.9463 60.728C77.5009 60.728 77.9276 60.984 78.2262 61.496C78.5676 62.008 78.7383 62.712 78.7383 63.608C78.7383 65.272 78.3329 66.5947 77.5223 67.576C75.3036 70.264 73.1063 72.2267 70.9303 73.464C68.7543 74.7013 66.4716 75.32 64.0823 75.32C60.4556 75.32 57.6183 74.2533 55.5703 72.12C53.5223 69.944 52.4983 67.0427 52.4983 63.416C52.4983 62.008 52.6049 60.472 52.8183 58.808C53.0743 57.144 53.4796 55.032 54.0343 52.472L56.5943 40.76C56.6796 40.376 56.8289 39.6933 57.0423 38.712C57.2556 37.7307 57.4263 36.8133 57.5543 35.96C57.6823 35.064 57.7463 34.1893 57.7463 33.336C57.7463 31.9707 57.3623 30.8827 56.5943 30.072C55.8263 29.2613 54.7383 28.856 53.3303 28.856C50.7703 28.856 48.2103 30.2213 45.6503 32.952C43.0903 35.6827 40.7223 40.0987 38.5463 46.2C36.3703 52.2587 34.6636 60.024 33.4263 69.496C33.1276 71.672 32.6796 73.1867 32.0823 74.04C31.5276 74.8933 30.4183 75.32 28.7543 75.32ZM106.181 55.352C106.735 55.352 107.162 55.6293 107.461 56.184C107.759 56.7387 107.909 57.4427 107.909 58.296C107.909 60.344 107.29 61.56 106.053 61.944C103.493 62.84 100.677 63.352 97.6048 63.48C96.7941 67.064 95.1941 69.944 92.8048 72.12C90.4154 74.2533 87.7061 75.32 84.6768 75.32C82.1168 75.32 79.9194 74.7013 78.0848 73.464C76.2928 72.2267 74.9274 70.584 73.9888 68.536C73.0501 66.488 72.5807 64.2693 72.5807 61.88C72.5807 58.6373 73.1994 55.7573 74.4368 53.24C75.6741 50.68 77.3808 48.696 79.5568 47.288C81.7328 45.8373 84.1434 45.112 86.7888 45.112C90.0314 45.112 92.6341 46.2427 94.5968 48.504C96.6021 50.7227 97.7754 53.4747 98.1168 56.76C100.122 56.632 102.511 56.2053 105.285 55.48C105.626 55.3947 105.925 55.352 106.181 55.352ZM85.1888 68.536C86.5541 68.536 87.7274 67.9813 88.7088 66.872C89.7328 65.7627 90.4154 64.1627 90.7568 62.072C89.4341 61.176 88.4101 60.0027 87.6848 58.552C87.0021 57.1013 86.6608 55.5653 86.6608 53.944C86.6608 53.2613 86.7248 52.5787 86.8528 51.896H86.5328C84.8261 51.896 83.3968 52.728 82.2448 54.392C81.1354 56.0133 80.5808 58.3173 80.5808 61.304C80.5808 63.6507 81.0288 65.4427 81.9248 66.68C82.8634 67.9173 83.9514 68.536 85.1888 68.536ZM132.585 60.728C133.139 60.728 133.566 60.984 133.865 61.496C134.206 62.008 134.377 62.712 134.377 63.608C134.377 65.3147 133.971 66.6373 133.161 67.576C131.326 69.8373 129.321 71.6933 127.145 73.144C124.969 74.5947 122.473 75.32 119.657 75.32C110.953 75.32 106.601 69.1973 106.601 56.952C106.601 55.0747 106.665 53.176 106.793 51.256H104.297C103.017 51.256 102.142 51.0213 101.673 50.552C101.246 50.0827 101.033 49.336 101.033 48.312C101.033 45.9227 101.993 44.728 103.913 44.728H107.561C108.286 40.0347 109.395 35.7467 110.889 31.864C112.382 27.9813 114.174 24.888 116.265 22.584C118.398 20.28 120.681 19.128 123.113 19.128C124.905 19.128 126.313 19.9173 127.337 21.496C128.361 23.0747 128.873 25.0587 128.873 27.448C128.873 34.0613 126.099 39.8213 120.553 44.728H127.721C128.403 44.728 128.894 44.8773 129.193 45.176C129.491 45.4747 129.641 46.0293 129.641 46.84C129.641 49.784 127.23 51.256 122.409 51.256H114.601C114.515 53.3893 114.473 55.0533 114.473 56.248C114.473 60.6853 114.985 63.8 116.009 65.592C117.075 67.384 118.739 68.28 121.001 68.28C122.835 68.28 124.457 67.7253 125.865 66.616C127.273 65.5067 128.937 63.8427 130.857 61.624C131.369 61.0267 131.945 60.728 132.585 60.728ZM121.385 25.272C120.745 25.272 120.019 26.0827 119.209 27.704C118.441 29.2827 117.694 31.5013 116.969 34.36C116.286 37.176 115.71 40.312 115.241 43.768C117.758 41.592 119.635 39.16 120.873 36.472C122.153 33.7413 122.793 31.2667 122.793 29.048C122.793 26.5307 122.323 25.272 121.385 25.272ZM137.55 40.952C135.758 40.952 134.414 40.5467 133.518 39.736C132.622 38.8827 132.174 37.7093 132.174 36.216C132.174 34.7227 132.75 33.4853 133.902 32.504C135.096 31.48 136.568 30.968 138.318 30.968C139.896 30.968 141.176 31.352 142.158 32.12C143.139 32.888 143.63 33.976 143.63 35.384C143.63 37.0907 143.075 38.456 141.966 39.48C140.856 40.4613 139.384 40.952 137.55 40.952ZM137.038 75.32C134.264 75.32 132.238 74.3387 130.958 72.376C129.72 70.4133 129.102 67.8107 129.102 64.568C129.102 62.648 129.336 60.1947 129.806 57.208C130.318 54.1787 130.958 51.3627 131.726 48.76C132.11 47.3947 132.622 46.456 133.262 45.944C133.902 45.432 134.926 45.176 136.334 45.176C138.51 45.176 139.598 45.9013 139.598 47.352C139.598 48.4187 139.192 50.8933 138.382 54.776C137.358 59.4693 136.846 62.648 136.846 64.312C136.846 65.592 137.016 66.5733 137.358 67.256C137.699 67.9387 138.275 68.28 139.086 68.28C139.854 68.28 140.814 67.7467 141.966 66.68C143.118 65.6133 144.654 63.928 146.574 61.624C147.086 61.0267 147.662 60.728 148.302 60.728C148.856 60.728 149.283 60.984 149.582 61.496C149.923 62.008 150.094 62.712 150.094 63.608C150.094 65.3147 149.688 66.6373 148.878 67.576C144.654 72.7387 140.707 75.32 137.038 75.32ZM177.221 55.544C177.349 55.5013 177.562 55.48 177.861 55.48C178.501 55.48 178.991 55.6933 179.333 56.12C179.674 56.5467 179.845 57.1227 179.845 57.848C179.845 59.1707 179.589 60.216 179.077 60.984C178.565 61.7093 177.797 62.2427 176.773 62.584C174.81 63.224 172.719 63.544 170.501 63.544C168.623 63.544 166.853 63.288 165.189 62.776C163.951 64.7813 162.586 66.8507 161.093 68.984C159.386 71.416 157.914 73.08 156.677 73.976C155.439 74.872 154.031 75.32 152.453 75.32C150.703 75.32 149.317 74.6373 148.293 73.272C147.311 71.9067 146.693 69.752 146.437 66.808C145.925 60.8347 145.669 55.608 145.669 51.128V48.888C145.711 47.48 146.095 46.4987 146.821 45.944C147.546 45.3893 148.634 45.112 150.085 45.112C151.194 45.112 152.005 45.368 152.517 45.88C153.071 46.3493 153.349 47.16 153.349 48.312C153.349 53.2187 153.647 59.5973 154.245 67.448C156.805 63.6507 158.725 60.6213 160.005 58.36C159.365 57.1227 159.045 55.6507 159.045 53.944C159.045 52.4933 159.365 51.0853 160.005 49.72C160.645 48.3547 161.519 47.2453 162.629 46.392C163.738 45.5387 164.997 45.112 166.405 45.112C167.642 45.112 168.645 45.56 169.413 46.456C170.181 47.3093 170.565 48.568 170.565 50.232C170.565 52.152 170.053 54.3493 169.029 56.824C170.65 56.7387 172.805 56.4187 175.493 55.864L177.221 55.544ZM180.819 75.32C178.899 75.32 177.32 74.4453 176.083 72.696C174.888 70.904 174.291 68.6853 174.291 66.04C174.291 62.84 174.504 59.9173 174.931 57.272C175.357 54.584 176.061 51.7467 177.043 48.76C177.469 47.48 178.067 46.5627 178.835 46.008C179.603 45.4533 180.819 45.176 182.483 45.176C183.421 45.176 184.061 45.3253 184.403 45.624C184.787 45.9227 184.979 46.3707 184.979 46.968C184.979 47.3093 184.744 48.4613 184.275 50.424C183.848 52.0027 183.507 53.432 183.251 54.712C182.397 59.192 181.971 62.1787 181.971 63.672C181.971 64.568 182.077 65.208 182.291 65.592C182.504 65.9333 182.845 66.104 183.315 66.104C183.955 66.104 184.744 65.464 185.683 64.184C186.664 62.904 187.688 60.9627 188.755 58.36C189.864 55.7573 190.931 52.5573 191.955 48.76C192.296 47.48 192.808 46.5627 193.491 46.008C194.216 45.4533 195.283 45.176 196.691 45.176C197.672 45.176 198.355 45.304 198.739 45.56C199.123 45.7733 199.315 46.2 199.315 46.84C199.315 47.9067 198.781 50.8293 197.715 55.608C196.52 61.0693 195.923 64.44 195.923 65.72C195.923 66.5307 196.093 67.1707 196.435 67.64C196.776 68.0667 197.224 68.28 197.779 68.28C198.632 68.28 199.635 67.768 200.787 66.744C201.981 65.6773 203.56 63.9707 205.523 61.624C206.035 61.0267 206.611 60.728 207.251 60.728C207.805 60.728 208.232 60.984 208.531 61.496C208.872 62.008 209.043 62.712 209.043 63.608C209.043 65.3147 208.637 66.6373 207.827 67.576C205.992 69.8373 204.008 71.6933 201.875 73.144C199.784 74.5947 197.395 75.32 194.707 75.32C192.659 75.32 191.144 74.5307 190.163 72.952C189.224 71.3733 188.755 69.1547 188.755 66.296C188.029 69.1973 186.941 71.4373 185.491 73.016C184.04 74.552 182.483 75.32 180.819 75.32ZM226.765 62.648C227.32 62.648 227.747 62.904 228.045 63.416C228.387 63.928 228.557 64.632 228.557 65.528C228.557 67.064 228.195 68.3867 227.469 69.496C226.275 71.3307 224.696 72.76 222.733 73.784C220.813 74.808 218.509 75.32 215.821 75.32C211.725 75.32 208.547 74.104 206.285 71.672C204.024 69.1973 202.893 65.8693 202.893 61.688C202.893 58.744 203.512 56.0133 204.749 53.496C205.987 50.936 207.693 48.9093 209.869 47.416C212.088 45.9227 214.584 45.176 217.357 45.176C219.832 45.176 221.816 45.9227 223.309 47.416C224.803 48.8667 225.549 50.8507 225.549 53.368C225.549 56.312 224.483 58.8507 222.349 60.984C220.259 63.0747 216.675 64.7387 211.597 65.976C212.621 67.9387 214.349 68.92 216.781 68.92C218.531 68.92 219.96 68.5147 221.069 67.704C222.221 66.8933 223.544 65.528 225.037 63.608C225.549 62.968 226.125 62.648 226.765 62.648ZM216.269 51.448C214.691 51.448 213.347 52.3653 212.237 54.2C211.171 56.0347 210.637 58.2533 210.637 60.856V60.984C213.155 60.3867 215.139 59.4907 216.589 58.296C218.04 57.1013 218.765 55.7147 218.765 54.136C218.765 53.3253 218.531 52.6853 218.061 52.216C217.635 51.704 217.037 51.448 216.269 51.448Z" fill="#F7F7F7"/>
</svg>
